<svg width="15" height="14" viewBox="0 0 15 14" fill="none" xmlns="http://www.w3.org/2000/svg">
<path d="M0.190922 13.9981H3.40552V4.55614H0.190922V13.9981ZM1.81966 0.0038825C1.58506 -0.0115884 1.34964 0.0192852 1.12824 0.0945588C0.906838 0.169833 0.704272 0.287875 0.533323 0.441228C0.362374 0.59458 0.226751 0.779915 0.135017 0.985542C0.0432825 1.19117 -0.0025796 1.41262 0.000336998 1.63592C-0.00429976 1.8562 0.0389552 2.07503 0.127394 2.27872C0.215832 2.48241 0.347559 2.6666 0.514338 2.81976C0.681118 2.97292 0.879364 3.09178 1.0967 3.1689C1.31403 3.24601 1.54578 3.27974 1.77746 3.26796H1.79856C2.03316 3.28344 2.26858 3.25256 2.48998 3.17729C2.71138 3.10201 2.91395 2.98397 3.0849 2.83062C3.25584 2.67727 3.39147 2.49193 3.4832 2.2863C3.57494 2.08068 3.62079 1.85922 3.61787 1.63592C3.6221 1.41401 3.57787 1.19368 3.48794 0.988817C3.39801 0.783958 3.26435 0.599022 3.09538 0.445676C2.92642 0.292329 2.72583 0.173902 2.50625 0.0978628C2.28668 0.0218233 2.0529 -0.0101762 1.81966 0.0038825M15 8.58421V13.9981H11.7854V8.94682C11.7854 7.67803 11.3205 6.81385 10.1567 6.81385C9.79021 6.81891 9.43451 6.93214 9.13888 7.13784C8.84325 7.34353 8.62234 7.63149 8.50681 7.96177C8.42431 8.20895 8.38837 8.46802 8.40064 8.72706V14H5.18468C5.18468 14 5.22824 5.44488 5.18468 4.55809H8.39928V5.89732C8.39384 5.90766 8.38498 5.91736 8.37954 5.9277H8.39928V5.89732C8.68334 5.40832 9.10454 5.00365 9.61612 4.72821C10.1277 4.45278 10.7097 4.31737 11.2974 4.33703C13.4135 4.33703 15 5.68597 15 8.5868" fill="white"/>
</svg>
