<svg width="24" height="20" viewBox="0 0 24 20" fill="none" xmlns="http://www.w3.org/2000/svg">
<path d="M23.953 2.57058C23.0545 2.96618 22.1026 3.22732 21.128 3.34558C22.1541 2.72883 22.9224 1.76162 23.291 0.622575C22.34 1.17758 21.286 1.58158 20.164 1.80658C19.4238 1.015 18.4429 0.489997 17.3736 0.313077C16.3044 0.136157 15.2067 0.317226 14.2509 0.828166C13.2952 1.33911 12.5349 2.15133 12.0881 3.1387C11.6412 4.12607 11.533 5.23335 11.78 6.28858C7.69 6.09558 4.067 4.13058 1.64 1.16258C1.19879 1.91239 0.968664 2.7676 0.974 3.63758C0.974 5.34758 1.844 6.85058 3.162 7.73358C2.38086 7.70871 1.61697 7.49751 0.934 7.11758V7.17758C0.933557 8.31397 1.32627 9.41551 2.04551 10.2953C2.76474 11.1752 3.76621 11.7791 4.88 12.0046C4.1583 12.198 3.40241 12.227 2.668 12.0896C2.98412 13.0676 3.59766 13.9225 4.42301 14.5351C5.24837 15.1476 6.24435 15.4873 7.272 15.5066C5.53153 16.8725 3.38248 17.6139 1.17 17.6116C0.78 17.6116 0.391 17.5886 0 17.5446C2.25571 18.9889 4.87851 19.7556 7.557 19.7536C16.61 19.7536 21.555 12.2576 21.555 5.76858C21.555 5.55858 21.555 5.34858 21.54 5.13858C22.506 4.44344 23.3392 3.58039 24 2.59058L23.953 2.57058Z" fill="white"/>
</svg>
