<svg width="272" height="506" viewBox="0 0 272 506" fill="none" xmlns="http://www.w3.org/2000/svg">
<g opacity="0.4">
<path d="M-88.0044 153.038H-100.891C-102.226 153.038 -103.305 151.963 -103.305 150.631V137.738C-103.305 137.1 -103.046 136.484 -102.592 136.03L-102.944 135.677L-102.592 136.03L-12.7287 46.1594C-12.2767 45.7074 -11.6611 45.4536 -11.0208 45.4536H1.87299C3.20837 45.4536 4.28682 46.528 4.28682 47.8602V60.7539C4.28682 61.391 4.028 62.0076 3.57369 62.4619L-86.2964 152.332C-86.7484 152.784 -87.3641 153.038 -88.0044 153.038Z" stroke="#D2EBD5"/>
<path d="M86.3154 138.877H73.4217C72.0863 138.877 71.0078 137.802 71.0078 136.47V123.576C71.0078 122.939 71.2666 122.323 71.7209 121.868L113.76 79.8289C114.212 79.3769 114.828 79.123 115.468 79.123H128.362C129.698 79.123 130.776 80.1975 130.776 81.5296V94.4233C130.776 95.0605 130.517 95.677 130.063 96.1313L88.0234 138.171C87.5713 138.623 86.9557 138.877 86.3154 138.877Z" stroke="#D2EBD5"/>
<path d="M19.706 77.3646H6.81228C5.47689 77.3646 4.39844 76.2902 4.39844 74.9581V62.0643C4.39844 61.4272 4.65727 60.8107 5.11158 60.3564L37.142 28.326C37.594 27.8739 38.2096 27.6201 38.85 27.6201H51.7437C53.0791 27.6201 54.1575 28.6945 54.1575 30.0267V42.9204C54.1575 43.5575 53.8987 44.1741 53.4444 44.6284L21.414 76.6588C20.962 77.1108 20.3463 77.3646 19.706 77.3646Z" stroke="#D2EBD5"/>
<path d="M154.747 71.9018H141.853C140.518 71.9018 139.439 70.8273 139.439 69.4952V56.6015C139.439 55.9643 139.698 55.3478 140.153 54.8935L172.183 22.8631C172.635 22.411 173.251 22.1572 173.891 22.1572H186.785C188.12 22.1572 189.199 23.2317 189.199 24.5638V37.4575C189.199 38.0947 188.94 38.7112 188.485 39.1655L156.455 71.1959C156.003 71.6479 155.387 71.9018 154.747 71.9018Z" stroke="#D2EBD5"/>
<path d="M114.339 78.822H101.445C100.11 78.822 99.0312 77.7475 99.0312 76.4154V63.5217C99.0312 62.8845 99.2901 62.268 99.7444 61.8137L121.219 40.3387C121.671 39.8866 122.287 39.6328 122.927 39.6328H135.821C137.156 39.6328 138.235 40.7072 138.235 42.0394V54.9331C138.235 55.5702 137.976 56.1868 137.522 56.6411L116.047 78.1161C115.595 78.5681 114.979 78.822 114.339 78.822Z" stroke="#D2EBD5"/>
<path d="M20.7119 205.64H7.81814C6.48275 205.64 5.4043 204.566 5.4043 203.234V190.34C5.4043 189.703 5.66312 189.086 6.11743 188.632L27.5924 167.157C28.0445 166.705 28.6601 166.451 29.3004 166.451H42.1942C43.5295 166.451 44.608 167.525 44.608 168.857V181.751C44.608 182.388 44.3492 183.005 43.8949 183.459L22.4199 204.934C21.9678 205.386 21.3522 205.64 20.7119 205.64Z" stroke="#D2EBD5"/>
<path d="M119.259 172.91H106.365C105.03 172.91 103.951 171.836 103.951 170.504V157.61C103.951 156.973 104.21 156.356 104.664 155.902L126.139 134.427C126.591 133.975 127.207 133.721 127.847 133.721H140.741C142.076 133.721 143.155 134.795 143.155 136.128V149.021C143.155 149.658 142.896 150.275 142.442 150.729L120.967 172.204C120.515 172.656 119.899 172.91 119.259 172.91Z" stroke="#D2EBD5"/>
<path d="M121.686 38.9906C121.278 39.3982 120.738 39.6447 120.166 39.6891H119.985H107.092C105.756 39.6891 104.678 38.6147 104.678 37.2826V24.3888C104.678 23.7517 104.937 23.1352 105.391 22.6808L105.391 22.6808L126.859 1.20585C127.311 0.75381 127.926 0.5 128.567 0.5H141.46C142.796 0.5 143.874 1.57443 143.874 2.90655V15.8076C143.874 16.4447 143.615 17.0613 143.161 17.5156L121.686 38.9906Z" stroke="#D2EBD5"/>
<path d="M59.8603 198.092H46.9666C45.6312 198.092 44.5527 197.018 44.5527 195.686V182.792C44.5527 182.155 44.8116 181.538 45.2659 181.084L86.0961 140.254C86.5481 139.802 87.1637 139.548 87.804 139.548H100.698C102.033 139.548 103.112 140.622 103.112 141.954V154.848C103.112 155.485 102.853 156.102 102.398 156.556L61.5683 197.386C61.1163 197.838 60.5006 198.092 59.8603 198.092Z" stroke="#D2EBD5"/>
<path d="M48.0947 146.518H35.2009C33.8656 146.518 32.7871 145.444 32.7871 144.112V131.218C32.7871 130.581 33.0459 129.964 33.5003 129.51L54.9752 108.035C55.4273 107.583 56.0429 107.329 56.6832 107.329H69.577C70.9124 107.329 71.9908 108.404 71.9908 109.736V122.629C71.9908 123.267 71.732 123.883 71.2777 124.337L49.8027 145.812C49.3506 146.264 48.735 146.518 48.0947 146.518Z" stroke="#D2EBD5"/>
<path d="M3.6943 125.407H-9.19944C-10.5348 125.407 -11.6133 124.332 -11.6133 123V110.106C-11.6133 109.469 -11.3545 108.853 -10.9001 108.398L21.1302 76.368C21.5823 75.9159 22.1979 75.6621 22.8382 75.6621H35.732C37.0674 75.6621 38.1458 76.7365 38.1458 78.0687V90.9624C38.1458 91.5995 37.887 92.2161 37.4327 92.6704L5.40229 124.701C4.95024 125.153 4.33461 125.407 3.6943 125.407Z" stroke="#D2EBD5"/>
<path d="M-2.13187 163.994H-15.0256C-16.361 163.994 -17.4395 162.919 -17.4395 161.587V148.693C-17.4395 148.056 -17.1806 147.44 -16.7263 146.986L15.3041 114.955C15.7561 114.503 16.3717 114.249 17.0121 114.249H29.9058C31.2412 114.249 32.3196 115.324 32.3196 116.656V129.55C32.3196 130.187 32.0608 130.803 31.6065 131.258L-0.423883 163.288C-0.875929 163.74 -1.49156 163.994 -2.13187 163.994Z" stroke="#D2EBD5"/>
<path d="M53.5576 107.574H40.6638C39.3285 107.574 38.25 106.5 38.25 105.168V92.274C38.25 91.6369 38.5088 91.0203 38.9631 90.566L81.9132 47.616C82.3652 47.164 82.9808 46.9102 83.6211 46.9102H96.5149C97.8503 46.9102 98.9287 47.9846 98.9287 49.3167V62.2105C98.9287 62.8476 98.6699 63.4641 98.2156 63.9184L55.2656 106.868C54.8135 107.32 54.1979 107.574 53.5576 107.574Z" stroke="#D2EBD5"/>
</g>
<g opacity="0.4">
<path d="M-5.70361 415.819H-18.5901C-19.9255 415.819 -21.0039 414.744 -21.0039 413.412V400.519C-21.0039 399.881 -20.7451 399.265 -20.2908 398.811L-20.6436 398.458L-20.2908 398.811L69.5721 308.94C70.0241 308.488 70.6397 308.235 71.28 308.235H84.1738C85.5091 308.235 86.5876 309.309 86.5876 310.641V323.535C86.5876 324.172 86.3288 324.789 85.8745 325.243L-3.99562 415.113C-4.44767 415.565 -5.0633 415.819 -5.70361 415.819Z" stroke="#D2EBD5"/>
<path d="M-22.8389 464.99H-35.7326C-37.068 464.99 -38.1465 463.915 -38.1465 462.583V449.689C-38.1465 449.052 -37.8877 448.436 -37.4333 447.981L-5.40296 415.951C-4.95092 415.499 -4.33529 415.245 -3.69497 415.245H9.19877C10.5342 415.245 11.6126 416.32 11.6126 417.652V430.545C11.6126 431.183 11.3538 431.799 10.8995 432.253L-21.1309 464.284C-21.583 464.736 -22.1986 464.99 -22.8389 464.99Z" stroke="#D2EBD5"/>
<path d="M17.9267 325.22H5.03298C3.69759 325.22 2.61914 324.146 2.61914 322.813V309.92C2.61914 309.283 2.87797 308.666 3.33228 308.212L23.3504 288.194C23.8024 287.742 24.418 287.488 25.0583 287.488H37.9521C39.2875 287.488 40.3659 288.562 40.3659 289.894V302.788C40.3659 303.425 40.1071 304.042 39.6528 304.496L19.6347 324.514C19.1827 324.966 18.567 325.22 17.9267 325.22Z" stroke="#D2EBD5"/>
<path d="M168.616 401.657H155.722C154.387 401.657 153.309 400.583 153.309 399.251V386.357C153.309 385.72 153.567 385.103 154.022 384.649L196.061 342.61C196.513 342.158 197.129 341.904 197.769 341.904H210.663C211.998 341.904 213.077 342.978 213.077 344.31V357.204C213.077 357.841 212.818 358.458 212.364 358.912L170.324 400.952C169.872 401.404 169.257 401.657 168.616 401.657Z" stroke="#D2EBD5"/>
<path d="M102.007 340.146H89.1131C87.7777 340.146 86.6992 339.071 86.6992 337.739V324.845C86.6992 324.208 86.958 323.592 87.4124 323.137L119.443 291.107C119.895 290.655 120.51 290.401 121.151 290.401H134.044C135.38 290.401 136.458 291.476 136.458 292.808V305.701C136.458 306.339 136.199 306.955 135.745 307.409L103.715 339.44C103.263 339.892 102.647 340.146 102.007 340.146Z" stroke="#D2EBD5"/>
<path d="M237.048 334.683H224.154C222.819 334.683 221.74 333.608 221.74 332.276V319.382C221.74 318.745 221.999 318.129 222.453 317.674L254.484 285.644C254.936 285.192 255.551 284.938 256.192 284.938H269.085C270.421 284.938 271.499 286.013 271.499 287.345V300.239C271.499 300.876 271.24 301.492 270.786 301.947L238.756 333.977C238.304 334.429 237.688 334.683 237.048 334.683Z" stroke="#D2EBD5"/>
<path d="M196.64 341.603H183.746C182.41 341.603 181.332 340.528 181.332 339.196V326.302C181.332 325.665 181.591 325.049 182.045 324.594L203.52 303.119C203.972 302.667 204.588 302.414 205.228 302.414H218.122C219.457 302.414 220.536 303.488 220.536 304.82V317.714C220.536 318.351 220.277 318.968 219.823 319.422L198.348 340.897C197.896 341.349 197.28 341.603 196.64 341.603Z" stroke="#D2EBD5"/>
<path d="M103.013 468.421H90.1189C88.7835 468.421 87.7051 467.347 87.7051 466.015V453.121C87.7051 452.484 87.9639 451.867 88.4182 451.413L109.893 429.938C110.345 429.486 110.961 429.232 111.601 429.232H124.495C125.83 429.232 126.909 430.306 126.909 431.638V444.532C126.909 445.169 126.65 445.786 126.196 446.24L104.721 467.715C104.269 468.167 103.653 468.421 103.013 468.421Z" stroke="#D2EBD5"/>
<path d="M201.56 435.691H188.666C187.33 435.691 186.252 434.617 186.252 433.285V420.391C186.252 419.754 186.511 419.137 186.965 418.683L208.44 397.208C208.892 396.756 209.508 396.502 210.148 396.502H223.042C224.377 396.502 225.456 397.576 225.456 398.909V411.802C225.456 412.439 225.197 413.056 224.743 413.51L203.268 434.985C202.815 435.437 202.2 435.691 201.56 435.691Z" stroke="#D2EBD5"/>
<path d="M203.987 301.772C203.579 302.179 203.038 302.426 202.467 302.47H202.286H189.392C188.057 302.47 186.979 301.396 186.979 300.064V287.17C186.979 286.533 187.237 285.916 187.692 285.462L187.692 285.462L209.159 263.987C209.611 263.535 210.227 263.281 210.867 263.281H223.761C225.096 263.281 226.175 264.355 226.175 265.688V278.589C226.175 279.226 225.916 279.842 225.462 280.297L203.987 301.772Z" stroke="#D2EBD5"/>
<path d="M142.161 460.873H129.267C127.932 460.873 126.854 459.799 126.854 458.467V445.573C126.854 444.936 127.112 444.319 127.567 443.865L168.397 403.035C168.849 402.583 169.465 402.329 170.105 402.329H182.999C184.334 402.329 185.412 403.403 185.412 404.735V417.629C185.412 418.266 185.154 418.883 184.699 419.337L143.869 460.167C143.417 460.619 142.801 460.873 142.161 460.873Z" stroke="#D2EBD5"/>
<path d="M12.2802 363.624H-0.613504C-1.94889 363.624 -3.02734 362.55 -3.02734 361.218V348.324C-3.02734 347.687 -2.76852 347.07 -2.31421 346.616L19.1608 325.141C19.6128 324.689 20.2285 324.435 20.8688 324.435H33.7625C35.0979 324.435 36.1764 325.509 36.1764 326.842V339.735C36.1764 340.372 35.9175 340.989 35.4632 341.443L13.9882 362.918C13.5362 363.37 12.9206 363.624 12.2802 363.624Z" stroke="#D2EBD5"/>
<path d="M130.395 409.299H117.502C116.166 409.299 115.088 408.225 115.088 406.893V393.999C115.088 393.362 115.347 392.745 115.801 392.291L137.276 370.816C137.728 370.364 138.344 370.11 138.984 370.11H151.878C153.213 370.11 154.292 371.185 154.292 372.517V385.41C154.292 386.048 154.033 386.664 153.578 387.118L132.103 408.593C131.651 409.045 131.036 409.299 130.395 409.299Z" stroke="#D2EBD5"/>
<path d="M85.9951 388.188H73.1013C71.766 388.188 70.6875 387.113 70.6875 385.781V372.887C70.6875 372.25 70.9463 371.634 71.4006 371.179L103.431 339.149C103.883 338.697 104.499 338.443 105.139 338.443H118.033C119.368 338.443 120.447 339.518 120.447 340.85V353.743C120.447 354.381 120.188 354.997 119.733 355.451L87.7031 387.482C87.251 387.934 86.6354 388.188 85.9951 388.188Z" stroke="#D2EBD5"/>
<path d="M80.1689 426.775H67.2752C65.9398 426.775 64.8613 425.7 64.8613 424.368V411.474C64.8613 410.837 65.1202 410.221 65.5745 409.766L97.6048 377.736C98.0569 377.284 98.6725 377.03 99.3128 377.03H112.207C113.542 377.03 114.62 378.104 114.62 379.437V392.33C114.62 392.967 114.362 393.584 113.907 394.038L81.8769 426.069C81.4249 426.521 80.8092 426.775 80.1689 426.775Z" stroke="#D2EBD5"/>
<path d="M27.3916 446.793H14.4978C13.1624 446.793 12.084 445.718 12.084 444.386V431.493C12.084 430.855 12.3428 430.239 12.7971 429.785L55.7471 386.835C56.1992 386.382 56.8148 386.129 57.4551 386.129H70.3488C71.6842 386.129 72.7627 387.203 72.7627 388.535V401.429C72.7627 402.066 72.5039 402.683 72.0495 403.137L29.0996 446.087C28.6475 446.539 28.0319 446.793 27.3916 446.793Z" stroke="#D2EBD5"/>
<path d="M135.858 370.355H122.965C121.629 370.355 120.551 369.281 120.551 367.949V355.055C120.551 354.418 120.81 353.801 121.264 353.347L164.214 310.397C164.666 309.945 165.282 309.691 165.922 309.691H178.816C180.151 309.691 181.229 310.766 181.229 312.098V324.991C181.229 325.629 180.971 326.245 180.516 326.699L137.566 369.649C137.114 370.101 136.499 370.355 135.858 370.355Z" stroke="#D2EBD5"/>
</g>
</svg>
