<svg width="437" height="319" viewBox="0 0 437 319" fill="none" xmlns="http://www.w3.org/2000/svg">
<path d="M71.7838 201.814H54.8359C52.7198 201.814 51.0059 200.11 51.0059 197.994V181.046C51.0059 180.031 51.4176 179.054 52.1357 178.336L170.254 60.2082C170.972 59.49 171.949 59.0879 172.964 59.0879H189.912C192.028 59.0879 193.742 60.7923 193.742 62.9084V79.8563C193.742 80.8713 193.33 81.8479 192.612 82.566L74.484 200.694C73.7659 201.412 72.7892 201.814 71.7743 201.814H71.7838Z" fill="#E6FF4C"/>
<path d="M49.2545 266.446H32.3066C30.1905 266.446 28.4766 264.742 28.4766 262.626V245.678C28.4766 244.663 28.8883 243.686 29.6064 242.968L71.7082 200.866C72.4263 200.148 73.403 199.746 74.4179 199.746H91.3659C93.482 199.746 95.1959 201.45 95.1959 203.567V220.515C95.1959 221.529 94.7842 222.506 94.066 223.224L51.9643 265.326C51.2462 266.044 50.2695 266.446 49.2545 266.446Z" fill="#E6FF4C"/>
<path d="M102.837 82.7292H85.8886C83.7725 82.7292 82.0586 81.0248 82.0586 78.9087V61.9608C82.0586 60.9458 82.4703 59.9692 83.1885 59.251L109.501 32.9386C110.219 32.2205 111.196 31.8184 112.211 31.8184H129.159C131.275 31.8184 132.989 33.5227 132.989 35.6388V52.5868C132.989 53.6017 132.577 54.5784 131.859 55.2965L105.546 81.6089C104.828 82.327 103.852 82.7292 102.837 82.7292Z" fill="#E6FF4C"/>
<path d="M300.907 183.2H283.959C281.843 183.2 280.129 181.496 280.129 179.38V162.432C280.129 161.417 280.541 160.44 281.259 159.722L336.517 104.464C337.235 103.746 338.212 103.344 339.226 103.344H356.174C358.291 103.344 360.004 105.048 360.004 107.164V124.112C360.004 125.127 359.593 126.104 358.875 126.822L303.617 182.08C302.899 182.798 301.922 183.2 300.907 183.2Z" fill="#D2EBD5"/>
<path d="M213.352 102.349H196.404C194.288 102.349 192.574 100.644 192.574 98.5282V81.5802C192.574 80.5653 192.986 79.5886 193.704 78.8705L235.806 36.7687C236.524 36.0506 237.501 35.6484 238.516 35.6484H255.464C257.58 35.6484 259.294 37.3528 259.294 39.4689V56.4168C259.294 57.4318 258.882 58.4085 258.164 59.1266L216.062 101.228C215.344 101.946 214.367 102.349 213.352 102.349Z" fill="#D2EBD5"/>
<path d="M390.856 95.167H373.908C371.792 95.167 370.078 93.4626 370.078 91.3465V74.3986C370.078 73.3836 370.49 72.407 371.208 71.6888L413.31 29.5871C414.028 28.869 415.005 28.4668 416.02 28.4668H432.967C435.084 28.4668 436.797 30.1712 436.797 32.2873V49.2352C436.797 50.2502 436.386 51.2268 435.668 51.945L393.566 94.0467C392.848 94.7648 391.871 95.167 390.856 95.167Z" fill="#E6FF4C"/>
<path d="M30.5924 156.888H13.6445C11.5284 156.888 9.81445 155.183 9.81445 153.067V136.119C9.81445 135.104 10.2262 134.128 10.9443 133.41L53.0461 91.3078C53.7642 90.5897 54.7409 90.1875 55.7558 90.1875H72.7038C74.8199 90.1875 76.5338 91.8919 76.5338 94.008V110.956C76.5338 111.971 76.1221 112.948 75.4039 113.666L33.3022 155.767C32.5841 156.486 31.6074 156.888 30.5924 156.888Z" fill="#D2EBD5"/>
<path d="M337.741 104.263H320.793C318.677 104.263 316.963 102.559 316.963 100.443V83.495C316.963 82.48 317.375 81.5033 318.093 80.7852L346.32 52.5578C347.038 51.8397 348.015 51.4375 349.03 51.4375H365.978C368.094 51.4375 369.808 53.1419 369.808 55.258V72.2059C369.808 73.2209 369.396 74.1975 368.678 74.9157L340.451 103.143C339.732 103.861 338.756 104.263 337.741 104.263Z" fill="#E6FF4C"/>
<path d="M151.778 291.826H134.83C132.714 291.826 131 290.121 131 288.005V271.057C131 270.042 131.412 269.066 132.13 268.348L160.357 240.12C161.075 239.402 162.052 239 163.067 239H180.015C182.131 239 183.845 240.704 183.845 242.82V259.768C183.845 260.783 183.433 261.76 182.715 262.478L154.488 290.706C153.77 291.424 152.793 291.826 151.778 291.826Z" fill="#D2EBD5"/>
<path d="M41.8149 318.775H24.8574C22.7413 318.775 21.0273 317.071 21.0273 314.955V298.007C21.0273 296.992 21.4391 296.015 22.1572 295.297L50.3846 267.069C51.1028 266.351 52.0794 265.949 53.0944 265.949H70.0423C72.1584 265.949 73.8724 267.654 73.8724 269.77V286.718C73.8724 287.733 73.4606 288.709 72.7425 289.427L44.5151 317.655C43.7969 318.373 42.8203 318.775 41.8053 318.775H41.8149Z" fill="#D2EBD5"/>
<path d="M344.206 227.935H327.258C325.142 227.935 323.428 226.231 323.428 224.115V207.167C323.428 206.152 323.839 205.175 324.558 204.457L352.785 176.23C353.503 175.512 354.48 175.109 355.495 175.109H372.443C374.559 175.109 376.273 176.814 376.273 178.93V195.878C376.273 196.893 375.861 197.869 375.143 198.588L346.915 226.815C346.197 227.533 345.221 227.935 344.206 227.935Z" fill="#E6FF4C"/>
<path d="M345.163 52.8259H328.215C326.099 52.8259 324.385 51.1215 324.385 49.0054V32.0575C324.385 31.0425 324.796 30.0658 325.515 29.3477L353.732 1.12029C354.451 0.402154 355.427 0 356.442 0H373.39C375.506 0 377.22 1.70437 377.22 3.82047V20.778C377.22 21.7929 376.808 22.7696 376.09 23.4877L347.863 51.7152C347.145 52.4333 346.168 52.8354 345.153 52.8354L345.163 52.8259Z" fill="#E6FF4C"/>
<path d="M266.132 261.036H249.184C247.067 261.036 245.354 259.332 245.354 257.216V240.268C245.354 239.253 245.765 238.276 246.483 237.558L300.152 183.89C300.87 183.172 301.847 182.77 302.862 182.77H319.81C321.926 182.77 323.64 184.474 323.64 186.59V203.538C323.64 204.553 323.228 205.53 322.51 206.248L268.841 259.916C268.123 260.634 267.146 261.036 266.132 261.036Z" fill="#E6FF4C"/>
<path d="M20.7876 208.795H3.83004C1.71394 208.804 0 207.09 0 204.974V188.026C0 187.011 0.41173 186.035 1.12986 185.316L29.3573 157.089C30.0754 156.371 31.0521 155.969 32.067 155.969H49.015C51.1311 155.969 52.845 157.673 52.845 159.789V176.737C52.845 177.752 52.4333 178.729 51.7152 179.447L23.4877 207.674C22.7696 208.392 21.7929 208.795 20.778 208.795H20.7876Z" fill="#E6FF4C"/>
<path d="M95.4147 133.209H78.4668C76.3507 133.209 74.6367 131.504 74.6367 129.388V112.44C74.6367 111.425 75.0484 110.449 75.7666 109.731L103.994 81.5031C104.712 80.785 105.689 80.3828 106.704 80.3828H123.652C125.768 80.3828 127.482 82.0872 127.482 84.2033V101.151C127.482 102.166 127.07 103.143 126.352 103.861L98.1245 132.088C97.4063 132.807 96.4297 133.209 95.4147 133.209Z" fill="#D2EBD5"/>
<path d="M250.667 193.244H233.719C231.603 193.244 229.889 191.539 229.889 189.423V172.475C229.889 171.46 230.3 170.484 231.019 169.766L259.246 141.538C259.964 140.82 260.941 140.418 261.956 140.418H278.904C281.02 140.418 282.734 142.122 282.734 144.238V161.186C282.734 162.201 282.322 163.178 281.604 163.896L253.376 192.124C252.658 192.842 251.682 193.244 250.667 193.244Z" fill="#E6FF4C"/>
<path d="M192.307 165.497H175.359C173.243 165.497 171.529 163.793 171.529 161.677V144.729C171.529 143.714 171.941 142.737 172.659 142.019L214.761 99.9172C215.479 99.199 216.456 98.7969 217.471 98.7969H234.419C236.535 98.7969 238.249 100.501 238.249 102.617V119.565C238.249 120.58 237.837 121.557 237.119 122.275L195.017 164.377C194.299 165.095 193.322 165.497 192.307 165.497Z" fill="#D2EBD5"/>
<path d="M184.647 216.216H167.699C165.583 216.216 163.869 214.511 163.869 212.395V195.447C163.869 194.432 164.281 193.456 164.999 192.738L207.101 150.636C207.819 149.918 208.796 149.516 209.811 149.516H226.758C228.875 149.516 230.588 151.22 230.588 153.336V170.284C230.588 171.299 230.177 172.276 229.459 172.994L187.357 215.096C186.639 215.814 185.662 216.216 184.647 216.216Z" fill="#E6FF4C"/>
<path d="M115.274 242.528H98.3261C96.21 242.528 94.4961 240.824 94.4961 238.707V221.759C94.4961 220.745 94.9078 219.768 95.626 219.05L152.081 162.595C152.799 161.877 153.776 161.475 154.791 161.475H171.738C173.855 161.475 175.569 163.179 175.569 165.295V182.243C175.569 183.258 175.157 184.235 174.439 184.953L117.984 241.408C117.266 242.126 116.289 242.528 115.274 242.528Z" fill="#D2EBD5"/>
<path d="M257.848 142.057H240.9C238.784 142.057 237.07 140.353 237.07 138.237V121.289C237.07 120.274 237.482 119.297 238.2 118.579L294.655 62.1242C295.373 61.4061 296.35 61.0039 297.365 61.0039H314.313C316.429 61.0039 318.143 62.7083 318.143 64.8244V81.7723C318.143 82.7873 317.731 83.7639 317.013 84.4821L260.558 140.937C259.84 141.655 258.863 142.057 257.848 142.057Z" fill="#E6FF4C"/>
</svg>
